<mxfile host="app.diagrams.net" agent="Mozilla/5.0 (Windows NT 10.0; Win64; x64) AppleWebKit/537.36 (KHTML, like Gecko) Chrome/131.0.0.0 Safari/537.36 Edg/131.0.0.0" version="24.8.9">
  <diagram name="Page-1" id="c4acf3e9-155e-7222-9cf6-157b1a14988f">
    <mxGraphModel dx="1042" dy="565" grid="1" gridSize="10" guides="1" tooltips="1" connect="1" arrows="1" fold="1" page="1" pageScale="1" pageWidth="850" pageHeight="1100" background="none" math="0" shadow="0">
      <root>
        <mxCell id="0" />
        <mxCell id="1" parent="0" />
        <mxCell id="awgkv_ajtb9gfM6F4B6d-98" value="" style="rounded=0;whiteSpace=wrap;html=1;" vertex="1" parent="1">
          <mxGeometry x="10" y="1230" width="480" height="220" as="geometry" />
        </mxCell>
        <mxCell id="awgkv_ajtb9gfM6F4B6d-83" value="" style="rounded=0;whiteSpace=wrap;html=1;" vertex="1" parent="1">
          <mxGeometry x="440" y="940" width="220" height="125" as="geometry" />
        </mxCell>
        <mxCell id="awgkv_ajtb9gfM6F4B6d-32" value="" style="rounded=0;whiteSpace=wrap;html=1;" vertex="1" parent="1">
          <mxGeometry x="510" y="60" width="260" height="390" as="geometry" />
        </mxCell>
        <mxCell id="awgkv_ajtb9gfM6F4B6d-6" value="" style="rounded=0;whiteSpace=wrap;html=1;" vertex="1" parent="1">
          <mxGeometry x="30" y="340" width="370" height="200" as="geometry" />
        </mxCell>
        <mxCell id="awgkv_ajtb9gfM6F4B6d-3" style="edgeStyle=orthogonalEdgeStyle;rounded=0;orthogonalLoop=1;jettySize=auto;html=1;exitX=1;exitY=0.5;exitDx=0;exitDy=0;" edge="1" parent="1" source="awgkv_ajtb9gfM6F4B6d-1" target="awgkv_ajtb9gfM6F4B6d-2">
          <mxGeometry relative="1" as="geometry" />
        </mxCell>
        <mxCell id="awgkv_ajtb9gfM6F4B6d-1" value="Game Start" style="ellipse;whiteSpace=wrap;html=1;aspect=fixed;" vertex="1" parent="1">
          <mxGeometry x="60" y="90" width="80" height="80" as="geometry" />
        </mxCell>
        <mxCell id="awgkv_ajtb9gfM6F4B6d-8" style="edgeStyle=orthogonalEdgeStyle;rounded=0;orthogonalLoop=1;jettySize=auto;html=1;exitX=1;exitY=0.5;exitDx=0;exitDy=0;entryX=0;entryY=0.5;entryDx=0;entryDy=0;" edge="1" parent="1" source="awgkv_ajtb9gfM6F4B6d-2" target="awgkv_ajtb9gfM6F4B6d-7">
          <mxGeometry relative="1" as="geometry" />
        </mxCell>
        <mxCell id="awgkv_ajtb9gfM6F4B6d-2" value="Initial Menu" style="rounded=0;whiteSpace=wrap;html=1;" vertex="1" parent="1">
          <mxGeometry x="200" y="100" width="120" height="60" as="geometry" />
        </mxCell>
        <mxCell id="awgkv_ajtb9gfM6F4B6d-4" value="Place 1" style="rounded=0;whiteSpace=wrap;html=1;" vertex="1" parent="1">
          <mxGeometry x="80" y="370" width="120" height="60" as="geometry" />
        </mxCell>
        <mxCell id="awgkv_ajtb9gfM6F4B6d-5" value="Place 2" style="rounded=0;whiteSpace=wrap;html=1;" vertex="1" parent="1">
          <mxGeometry x="240" y="370" width="120" height="60" as="geometry" />
        </mxCell>
        <mxCell id="awgkv_ajtb9gfM6F4B6d-19" style="edgeStyle=orthogonalEdgeStyle;rounded=0;orthogonalLoop=1;jettySize=auto;html=1;exitX=0.5;exitY=1;exitDx=0;exitDy=0;" edge="1" parent="1" source="awgkv_ajtb9gfM6F4B6d-7" target="awgkv_ajtb9gfM6F4B6d-9">
          <mxGeometry relative="1" as="geometry" />
        </mxCell>
        <mxCell id="awgkv_ajtb9gfM6F4B6d-20" value="Create" style="edgeLabel;html=1;align=center;verticalAlign=middle;resizable=0;points=[];" vertex="1" connectable="0" parent="awgkv_ajtb9gfM6F4B6d-19">
          <mxGeometry x="-0.16" y="-3" relative="1" as="geometry">
            <mxPoint as="offset" />
          </mxGeometry>
        </mxCell>
        <mxCell id="awgkv_ajtb9gfM6F4B6d-25" style="edgeStyle=orthogonalEdgeStyle;rounded=0;orthogonalLoop=1;jettySize=auto;html=1;exitX=1;exitY=0.25;exitDx=0;exitDy=0;entryX=0;entryY=0.25;entryDx=0;entryDy=0;" edge="1" parent="1" source="awgkv_ajtb9gfM6F4B6d-7" target="awgkv_ajtb9gfM6F4B6d-23">
          <mxGeometry relative="1" as="geometry" />
        </mxCell>
        <mxCell id="awgkv_ajtb9gfM6F4B6d-72" value="Select" style="edgeLabel;html=1;align=center;verticalAlign=middle;resizable=0;points=[];" vertex="1" connectable="0" parent="awgkv_ajtb9gfM6F4B6d-25">
          <mxGeometry x="-0.056" y="-1" relative="1" as="geometry">
            <mxPoint x="1" as="offset" />
          </mxGeometry>
        </mxCell>
        <mxCell id="awgkv_ajtb9gfM6F4B6d-7" value="Caracter Creation" style="rounded=0;whiteSpace=wrap;html=1;" vertex="1" parent="1">
          <mxGeometry x="365" y="100" width="120" height="60" as="geometry" />
        </mxCell>
        <mxCell id="awgkv_ajtb9gfM6F4B6d-11" style="edgeStyle=orthogonalEdgeStyle;rounded=0;orthogonalLoop=1;jettySize=auto;html=1;exitX=1;exitY=0.5;exitDx=0;exitDy=0;dashed=1;" edge="1" parent="1" source="awgkv_ajtb9gfM6F4B6d-9" target="awgkv_ajtb9gfM6F4B6d-10">
          <mxGeometry relative="1" as="geometry">
            <Array as="points">
              <mxPoint x="600" y="250" />
              <mxPoint x="600" y="250" />
            </Array>
          </mxGeometry>
        </mxCell>
        <mxCell id="awgkv_ajtb9gfM6F4B6d-16" value="Can Acces" style="edgeLabel;html=1;align=center;verticalAlign=middle;resizable=0;points=[];" vertex="1" connectable="0" parent="awgkv_ajtb9gfM6F4B6d-11">
          <mxGeometry x="0.0257" y="-1" relative="1" as="geometry">
            <mxPoint as="offset" />
          </mxGeometry>
        </mxCell>
        <mxCell id="awgkv_ajtb9gfM6F4B6d-24" style="edgeStyle=orthogonalEdgeStyle;rounded=0;orthogonalLoop=1;jettySize=auto;html=1;exitX=1;exitY=0.25;exitDx=0;exitDy=0;entryX=0;entryY=0.5;entryDx=0;entryDy=0;startArrow=classic;startFill=0;" edge="1" parent="1" source="awgkv_ajtb9gfM6F4B6d-9" target="awgkv_ajtb9gfM6F4B6d-23">
          <mxGeometry relative="1" as="geometry" />
        </mxCell>
        <mxCell id="awgkv_ajtb9gfM6F4B6d-26" value="Change / consult" style="edgeLabel;html=1;align=center;verticalAlign=middle;resizable=0;points=[];" vertex="1" connectable="0" parent="awgkv_ajtb9gfM6F4B6d-24">
          <mxGeometry x="-0.0235" y="-2" relative="1" as="geometry">
            <mxPoint as="offset" />
          </mxGeometry>
        </mxCell>
        <mxCell id="awgkv_ajtb9gfM6F4B6d-9" value="Caracter" style="rounded=0;whiteSpace=wrap;html=1;" vertex="1" parent="1">
          <mxGeometry x="365" y="220" width="120" height="60" as="geometry" />
        </mxCell>
        <mxCell id="awgkv_ajtb9gfM6F4B6d-10" value="Inventory" style="rounded=0;whiteSpace=wrap;html=1;" vertex="1" parent="1">
          <mxGeometry x="620" y="230" width="120" height="60" as="geometry" />
        </mxCell>
        <mxCell id="awgkv_ajtb9gfM6F4B6d-12" value="Clues / info" style="rounded=0;whiteSpace=wrap;html=1;" vertex="1" parent="1">
          <mxGeometry x="620" y="330" width="120" height="60" as="geometry" />
        </mxCell>
        <mxCell id="awgkv_ajtb9gfM6F4B6d-13" style="edgeStyle=orthogonalEdgeStyle;rounded=0;orthogonalLoop=1;jettySize=auto;html=1;exitX=0.5;exitY=1;exitDx=0;exitDy=0;entryX=0.458;entryY=-0.006;entryDx=0;entryDy=0;entryPerimeter=0;" edge="1" parent="1" source="awgkv_ajtb9gfM6F4B6d-9" target="awgkv_ajtb9gfM6F4B6d-6">
          <mxGeometry relative="1" as="geometry" />
        </mxCell>
        <mxCell id="awgkv_ajtb9gfM6F4B6d-14" value="Can Go To" style="edgeLabel;html=1;align=center;verticalAlign=middle;resizable=0;points=[];" vertex="1" connectable="0" parent="awgkv_ajtb9gfM6F4B6d-13">
          <mxGeometry x="0.1675" y="-1" relative="1" as="geometry">
            <mxPoint as="offset" />
          </mxGeometry>
        </mxCell>
        <mxCell id="awgkv_ajtb9gfM6F4B6d-17" style="edgeStyle=orthogonalEdgeStyle;rounded=0;orthogonalLoop=1;jettySize=auto;html=1;exitX=1;exitY=0.75;exitDx=0;exitDy=0;dashed=1;entryX=0;entryY=0.5;entryDx=0;entryDy=0;" edge="1" parent="1" source="awgkv_ajtb9gfM6F4B6d-9" target="awgkv_ajtb9gfM6F4B6d-12">
          <mxGeometry relative="1" as="geometry">
            <mxPoint x="490" y="270" as="sourcePoint" />
            <mxPoint x="630" y="270" as="targetPoint" />
            <Array as="points">
              <mxPoint x="500" y="265" />
              <mxPoint x="500" y="280" />
              <mxPoint x="560" y="280" />
              <mxPoint x="560" y="360" />
            </Array>
          </mxGeometry>
        </mxCell>
        <mxCell id="awgkv_ajtb9gfM6F4B6d-18" value="Can Acces" style="edgeLabel;html=1;align=center;verticalAlign=middle;resizable=0;points=[];" vertex="1" connectable="0" parent="awgkv_ajtb9gfM6F4B6d-17">
          <mxGeometry x="0.0257" y="-1" relative="1" as="geometry">
            <mxPoint as="offset" />
          </mxGeometry>
        </mxCell>
        <mxCell id="awgkv_ajtb9gfM6F4B6d-23" value="Stats" style="rounded=0;whiteSpace=wrap;html=1;" vertex="1" parent="1">
          <mxGeometry x="610" y="100" width="120" height="60" as="geometry" />
        </mxCell>
        <mxCell id="awgkv_ajtb9gfM6F4B6d-27" style="edgeStyle=orthogonalEdgeStyle;rounded=0;orthogonalLoop=1;jettySize=auto;html=1;exitX=0.5;exitY=1;exitDx=0;exitDy=0;" edge="1" parent="1" source="awgkv_ajtb9gfM6F4B6d-6" target="awgkv_ajtb9gfM6F4B6d-6">
          <mxGeometry relative="1" as="geometry" />
        </mxCell>
        <mxCell id="awgkv_ajtb9gfM6F4B6d-29" style="edgeStyle=orthogonalEdgeStyle;rounded=0;orthogonalLoop=1;jettySize=auto;html=1;exitX=1;exitY=0.5;exitDx=0;exitDy=0;" edge="1" parent="1" source="awgkv_ajtb9gfM6F4B6d-28">
          <mxGeometry relative="1" as="geometry">
            <mxPoint x="270" y="640.3333333333333" as="targetPoint" />
          </mxGeometry>
        </mxCell>
        <mxCell id="awgkv_ajtb9gfM6F4B6d-50" value="can go" style="edgeLabel;html=1;align=center;verticalAlign=middle;resizable=0;points=[];" vertex="1" connectable="0" parent="awgkv_ajtb9gfM6F4B6d-29">
          <mxGeometry x="-0.0653" y="4" relative="1" as="geometry">
            <mxPoint as="offset" />
          </mxGeometry>
        </mxCell>
        <mxCell id="awgkv_ajtb9gfM6F4B6d-28" value="Character" style="ellipse;whiteSpace=wrap;html=1;aspect=fixed;" vertex="1" parent="1">
          <mxGeometry x="60" y="600" width="80" height="80" as="geometry" />
        </mxCell>
        <mxCell id="awgkv_ajtb9gfM6F4B6d-48" style="edgeStyle=orthogonalEdgeStyle;rounded=0;orthogonalLoop=1;jettySize=auto;html=1;exitX=1;exitY=0.5;exitDx=0;exitDy=0;startArrow=classic;startFill=0;" edge="1" parent="1" source="awgkv_ajtb9gfM6F4B6d-30" target="awgkv_ajtb9gfM6F4B6d-35">
          <mxGeometry relative="1" as="geometry" />
        </mxCell>
        <mxCell id="awgkv_ajtb9gfM6F4B6d-49" value="Find/use" style="edgeLabel;html=1;align=center;verticalAlign=middle;resizable=0;points=[];" vertex="1" connectable="0" parent="awgkv_ajtb9gfM6F4B6d-48">
          <mxGeometry x="-0.244" y="4" relative="1" as="geometry">
            <mxPoint x="2" y="4" as="offset" />
          </mxGeometry>
        </mxCell>
        <mxCell id="awgkv_ajtb9gfM6F4B6d-51" style="edgeStyle=orthogonalEdgeStyle;rounded=0;orthogonalLoop=1;jettySize=auto;html=1;exitX=0.5;exitY=1;exitDx=0;exitDy=0;entryX=0.5;entryY=0;entryDx=0;entryDy=0;" edge="1" parent="1" source="awgkv_ajtb9gfM6F4B6d-30" target="awgkv_ajtb9gfM6F4B6d-39">
          <mxGeometry relative="1" as="geometry" />
        </mxCell>
        <mxCell id="awgkv_ajtb9gfM6F4B6d-52" value="Can Talk" style="edgeLabel;html=1;align=center;verticalAlign=middle;resizable=0;points=[];" vertex="1" connectable="0" parent="awgkv_ajtb9gfM6F4B6d-51">
          <mxGeometry x="-0.1844" y="-2" relative="1" as="geometry">
            <mxPoint as="offset" />
          </mxGeometry>
        </mxCell>
        <mxCell id="awgkv_ajtb9gfM6F4B6d-30" value="Place" style="rounded=0;whiteSpace=wrap;html=1;" vertex="1" parent="1">
          <mxGeometry x="270" y="610" width="120" height="60" as="geometry" />
        </mxCell>
        <mxCell id="awgkv_ajtb9gfM6F4B6d-31" value="Name, current task" style="text;html=1;align=center;verticalAlign=middle;whiteSpace=wrap;rounded=0;" vertex="1" parent="1">
          <mxGeometry x="240" y="220" width="120" height="50" as="geometry" />
        </mxCell>
        <mxCell id="awgkv_ajtb9gfM6F4B6d-33" value="&lt;h1 style=&quot;margin-top: 0px;&quot;&gt;Menu&lt;/h1&gt;&lt;p&gt;character can always access&lt;/p&gt;" style="text;html=1;whiteSpace=wrap;overflow=hidden;rounded=0;" vertex="1" parent="1">
          <mxGeometry x="510" y="450" width="180" height="120" as="geometry" />
        </mxCell>
        <mxCell id="awgkv_ajtb9gfM6F4B6d-34" value="&lt;h1 style=&quot;margin-top: 0px;&quot;&gt;Places&lt;/h1&gt;&lt;p&gt;contain people, itens and&amp;nbsp;&lt;span style=&quot;background-color: initial;&quot;&gt;specific actions isolated from one another&lt;/span&gt;&lt;/p&gt;" style="text;html=1;whiteSpace=wrap;overflow=hidden;rounded=0;" vertex="1" parent="1">
          <mxGeometry x="80" y="450" width="180" height="80" as="geometry" />
        </mxCell>
        <mxCell id="awgkv_ajtb9gfM6F4B6d-36" style="edgeStyle=orthogonalEdgeStyle;rounded=0;orthogonalLoop=1;jettySize=auto;html=1;exitX=1;exitY=0.5;exitDx=0;exitDy=0;entryX=1;entryY=0.5;entryDx=0;entryDy=0;" edge="1" parent="1">
          <mxGeometry relative="1" as="geometry">
            <mxPoint x="609" y="640" as="sourcePoint" />
            <mxPoint x="739" y="260" as="targetPoint" />
            <Array as="points">
              <mxPoint x="809" y="640" />
              <mxPoint x="809" y="260" />
            </Array>
          </mxGeometry>
        </mxCell>
        <mxCell id="awgkv_ajtb9gfM6F4B6d-37" value="Can be&lt;div&gt;collected&lt;/div&gt;" style="edgeLabel;html=1;align=center;verticalAlign=middle;resizable=0;points=[];" vertex="1" connectable="0" parent="awgkv_ajtb9gfM6F4B6d-36">
          <mxGeometry x="0.0341" y="2" relative="1" as="geometry">
            <mxPoint as="offset" />
          </mxGeometry>
        </mxCell>
        <mxCell id="awgkv_ajtb9gfM6F4B6d-35" value="Itens" style="rounded=0;whiteSpace=wrap;html=1;" vertex="1" parent="1">
          <mxGeometry x="490" y="610" width="120" height="60" as="geometry" />
        </mxCell>
        <mxCell id="awgkv_ajtb9gfM6F4B6d-46" style="edgeStyle=orthogonalEdgeStyle;rounded=0;orthogonalLoop=1;jettySize=auto;html=1;exitX=1;exitY=0.5;exitDx=0;exitDy=0;entryX=1;entryY=0.5;entryDx=0;entryDy=0;" edge="1" parent="1" source="awgkv_ajtb9gfM6F4B6d-38" target="awgkv_ajtb9gfM6F4B6d-12">
          <mxGeometry relative="1" as="geometry" />
        </mxCell>
        <mxCell id="awgkv_ajtb9gfM6F4B6d-47" value="Collected" style="edgeLabel;html=1;align=center;verticalAlign=middle;resizable=0;points=[];" vertex="1" connectable="0" parent="awgkv_ajtb9gfM6F4B6d-46">
          <mxGeometry x="-0.5198" y="3" relative="1" as="geometry">
            <mxPoint as="offset" />
          </mxGeometry>
        </mxCell>
        <mxCell id="awgkv_ajtb9gfM6F4B6d-38" value="Rumors/info" style="rounded=0;whiteSpace=wrap;html=1;" vertex="1" parent="1">
          <mxGeometry x="620" y="730" width="120" height="60" as="geometry" />
        </mxCell>
        <mxCell id="awgkv_ajtb9gfM6F4B6d-41" style="edgeStyle=orthogonalEdgeStyle;rounded=0;orthogonalLoop=1;jettySize=auto;html=1;exitX=1;exitY=0.5;exitDx=0;exitDy=0;entryX=0;entryY=0.5;entryDx=0;entryDy=0;" edge="1" parent="1" source="awgkv_ajtb9gfM6F4B6d-39" target="awgkv_ajtb9gfM6F4B6d-40">
          <mxGeometry relative="1" as="geometry">
            <mxPoint x="420" y="760.3333333333333" as="targetPoint" />
          </mxGeometry>
        </mxCell>
        <mxCell id="awgkv_ajtb9gfM6F4B6d-39" value="Person" style="rounded=0;whiteSpace=wrap;html=1;" vertex="1" parent="1">
          <mxGeometry x="270" y="730" width="120" height="60" as="geometry" />
        </mxCell>
        <mxCell id="awgkv_ajtb9gfM6F4B6d-42" style="edgeStyle=orthogonalEdgeStyle;rounded=0;orthogonalLoop=1;jettySize=auto;html=1;exitX=1;exitY=0.5;exitDx=0;exitDy=0;entryX=0;entryY=0.5;entryDx=0;entryDy=0;startArrow=classic;startFill=0;" edge="1" parent="1" source="awgkv_ajtb9gfM6F4B6d-40" target="awgkv_ajtb9gfM6F4B6d-38">
          <mxGeometry relative="1" as="geometry" />
        </mxCell>
        <mxCell id="awgkv_ajtb9gfM6F4B6d-45" value="Give / take" style="edgeLabel;html=1;align=center;verticalAlign=middle;resizable=0;points=[];" vertex="1" connectable="0" parent="awgkv_ajtb9gfM6F4B6d-42">
          <mxGeometry x="-0.418" y="2" relative="1" as="geometry">
            <mxPoint as="offset" />
          </mxGeometry>
        </mxCell>
        <mxCell id="awgkv_ajtb9gfM6F4B6d-43" style="edgeStyle=orthogonalEdgeStyle;rounded=0;orthogonalLoop=1;jettySize=auto;html=1;exitX=0.5;exitY=0;exitDx=0;exitDy=0;entryX=0.5;entryY=1;entryDx=0;entryDy=0;startArrow=classic;startFill=0;" edge="1" parent="1" source="awgkv_ajtb9gfM6F4B6d-40" target="awgkv_ajtb9gfM6F4B6d-35">
          <mxGeometry relative="1" as="geometry">
            <Array as="points">
              <mxPoint x="500" y="720" />
              <mxPoint x="550" y="720" />
            </Array>
          </mxGeometry>
        </mxCell>
        <mxCell id="awgkv_ajtb9gfM6F4B6d-44" value="Give / take" style="edgeLabel;html=1;align=center;verticalAlign=middle;resizable=0;points=[];" vertex="1" connectable="0" parent="awgkv_ajtb9gfM6F4B6d-43">
          <mxGeometry x="-0.2855" y="3" relative="1" as="geometry">
            <mxPoint as="offset" />
          </mxGeometry>
        </mxCell>
        <mxCell id="awgkv_ajtb9gfM6F4B6d-61" style="edgeStyle=orthogonalEdgeStyle;rounded=0;orthogonalLoop=1;jettySize=auto;html=1;exitX=0.5;exitY=1;exitDx=0;exitDy=0;entryX=0;entryY=0.5;entryDx=0;entryDy=0;startArrow=classic;startFill=0;" edge="1" parent="1" source="awgkv_ajtb9gfM6F4B6d-40" target="awgkv_ajtb9gfM6F4B6d-55">
          <mxGeometry relative="1" as="geometry" />
        </mxCell>
        <mxCell id="awgkv_ajtb9gfM6F4B6d-62" value="Give/ Complete" style="edgeLabel;html=1;align=center;verticalAlign=middle;resizable=0;points=[];" vertex="1" connectable="0" parent="awgkv_ajtb9gfM6F4B6d-61">
          <mxGeometry x="-0.0836" y="-2" relative="1" as="geometry">
            <mxPoint as="offset" />
          </mxGeometry>
        </mxCell>
        <mxCell id="awgkv_ajtb9gfM6F4B6d-40" value="Dialog" style="rhombus;whiteSpace=wrap;html=1;" vertex="1" parent="1">
          <mxGeometry x="460" y="760" width="80" height="80" as="geometry" />
        </mxCell>
        <mxCell id="awgkv_ajtb9gfM6F4B6d-55" value="Tasks" style="rounded=0;whiteSpace=wrap;html=1;" vertex="1" parent="1">
          <mxGeometry x="620" y="860" width="120" height="60" as="geometry" />
        </mxCell>
        <mxCell id="awgkv_ajtb9gfM6F4B6d-68" value="&lt;h1 style=&quot;margin-top: 0px;&quot;&gt;Place System&lt;/h1&gt;&lt;p&gt;In a place you can both find&amp;nbsp; people and itens. Places have specific characters and itens.&lt;/p&gt;&lt;p&gt;You may need to use an item to reveal a character or get an info to reveal a place&lt;/p&gt;" style="text;html=1;whiteSpace=wrap;overflow=hidden;rounded=0;" vertex="1" parent="1">
          <mxGeometry x="40" y="700" width="180" height="160" as="geometry" />
        </mxCell>
        <mxCell id="awgkv_ajtb9gfM6F4B6d-69" value="&lt;h1 style=&quot;margin-top: 0px;&quot;&gt;Dialog System&lt;/h1&gt;&lt;p&gt;The dialog system allows you to interact with a person; certain dialogs result can differ based on a check&lt;/p&gt;" style="text;html=1;whiteSpace=wrap;overflow=hidden;rounded=0;" vertex="1" parent="1">
          <mxGeometry x="240" y="860" width="180" height="120" as="geometry" />
        </mxCell>
        <mxCell id="awgkv_ajtb9gfM6F4B6d-74" style="edgeStyle=orthogonalEdgeStyle;rounded=0;orthogonalLoop=1;jettySize=auto;html=1;exitX=1;exitY=0.5;exitDx=0;exitDy=0;entryX=0;entryY=0.5;entryDx=0;entryDy=0;" edge="1" parent="1" source="awgkv_ajtb9gfM6F4B6d-73" target="awgkv_ajtb9gfM6F4B6d-77">
          <mxGeometry relative="1" as="geometry">
            <mxPoint x="340" y="1019.6666666666667" as="targetPoint" />
          </mxGeometry>
        </mxCell>
        <mxCell id="awgkv_ajtb9gfM6F4B6d-87" value="Dialog Choice" style="edgeLabel;html=1;align=center;verticalAlign=middle;resizable=0;points=[];" vertex="1" connectable="0" parent="awgkv_ajtb9gfM6F4B6d-74">
          <mxGeometry x="-0.3231" y="4" relative="1" as="geometry">
            <mxPoint x="17" y="4" as="offset" />
          </mxGeometry>
        </mxCell>
        <mxCell id="awgkv_ajtb9gfM6F4B6d-100" style="edgeStyle=orthogonalEdgeStyle;rounded=0;orthogonalLoop=1;jettySize=auto;html=1;exitX=0.25;exitY=1;exitDx=0;exitDy=0;entryX=0.25;entryY=0;entryDx=0;entryDy=0;shape=link;dashed=1;" edge="1" parent="1" source="awgkv_ajtb9gfM6F4B6d-73" target="awgkv_ajtb9gfM6F4B6d-98">
          <mxGeometry relative="1" as="geometry" />
        </mxCell>
        <mxCell id="awgkv_ajtb9gfM6F4B6d-73" value="Dialog" style="rounded=0;whiteSpace=wrap;html=1;" vertex="1" parent="1">
          <mxGeometry x="40" y="990" width="120" height="60" as="geometry" />
        </mxCell>
        <mxCell id="awgkv_ajtb9gfM6F4B6d-84" style="edgeStyle=orthogonalEdgeStyle;rounded=0;orthogonalLoop=1;jettySize=auto;html=1;exitX=1;exitY=0.5;exitDx=0;exitDy=0;entryX=0;entryY=0.5;entryDx=0;entryDy=0;startArrow=classic;startFill=0;" edge="1" parent="1" source="awgkv_ajtb9gfM6F4B6d-77" target="awgkv_ajtb9gfM6F4B6d-83">
          <mxGeometry relative="1" as="geometry" />
        </mxCell>
        <mxCell id="awgkv_ajtb9gfM6F4B6d-85" style="edgeStyle=orthogonalEdgeStyle;rounded=0;orthogonalLoop=1;jettySize=auto;html=1;exitX=0.5;exitY=1;exitDx=0;exitDy=0;entryX=0.5;entryY=1;entryDx=0;entryDy=0;" edge="1" parent="1" source="awgkv_ajtb9gfM6F4B6d-77" target="awgkv_ajtb9gfM6F4B6d-73">
          <mxGeometry relative="1" as="geometry" />
        </mxCell>
        <mxCell id="awgkv_ajtb9gfM6F4B6d-86" value="Outcome" style="edgeLabel;html=1;align=center;verticalAlign=middle;resizable=0;points=[];" vertex="1" connectable="0" parent="awgkv_ajtb9gfM6F4B6d-85">
          <mxGeometry x="0.1143" y="3" relative="1" as="geometry">
            <mxPoint x="1" as="offset" />
          </mxGeometry>
        </mxCell>
        <mxCell id="awgkv_ajtb9gfM6F4B6d-77" value="Check" style="rhombus;whiteSpace=wrap;html=1;" vertex="1" parent="1">
          <mxGeometry x="290" y="980" width="80" height="80" as="geometry" />
        </mxCell>
        <mxCell id="awgkv_ajtb9gfM6F4B6d-78" value="Stat" style="rounded=0;whiteSpace=wrap;html=1;" vertex="1" parent="1">
          <mxGeometry x="450" y="950" width="90" height="30" as="geometry" />
        </mxCell>
        <mxCell id="awgkv_ajtb9gfM6F4B6d-79" value="Item" style="rounded=0;whiteSpace=wrap;html=1;" vertex="1" parent="1">
          <mxGeometry x="560" y="950" width="90" height="30" as="geometry" />
        </mxCell>
        <mxCell id="awgkv_ajtb9gfM6F4B6d-80" value="Task" style="rounded=0;whiteSpace=wrap;html=1;" vertex="1" parent="1">
          <mxGeometry x="560" y="1000" width="90" height="30" as="geometry" />
        </mxCell>
        <mxCell id="awgkv_ajtb9gfM6F4B6d-82" value="Choice" style="rounded=0;whiteSpace=wrap;html=1;" vertex="1" parent="1">
          <mxGeometry x="455" y="1000" width="90" height="30" as="geometry" />
        </mxCell>
        <mxCell id="awgkv_ajtb9gfM6F4B6d-88" value="Dialogs are character specific list of choices" style="text;html=1;align=center;verticalAlign=middle;whiteSpace=wrap;rounded=0;" vertex="1" parent="1">
          <mxGeometry x="30" y="940" width="140" height="30" as="geometry" />
        </mxCell>
        <mxCell id="awgkv_ajtb9gfM6F4B6d-89" value="General Text" style="rounded=0;whiteSpace=wrap;html=1;" vertex="1" parent="1">
          <mxGeometry x="40" y="1260" width="290" height="60" as="geometry" />
        </mxCell>
        <mxCell id="awgkv_ajtb9gfM6F4B6d-90" value="Choice 1 (ex. dialog)" style="rounded=0;whiteSpace=wrap;html=1;" vertex="1" parent="1">
          <mxGeometry x="40" y="1320" width="290" height="30" as="geometry" />
        </mxCell>
        <mxCell id="awgkv_ajtb9gfM6F4B6d-94" style="edgeStyle=orthogonalEdgeStyle;rounded=0;orthogonalLoop=1;jettySize=auto;html=1;exitX=1;exitY=0.5;exitDx=0;exitDy=0;" edge="1" parent="1" source="awgkv_ajtb9gfM6F4B6d-91">
          <mxGeometry relative="1" as="geometry">
            <mxPoint x="330.27272727272725" y="1280" as="targetPoint" />
            <Array as="points">
              <mxPoint x="400" y="1365" />
              <mxPoint x="400" y="1280" />
            </Array>
          </mxGeometry>
        </mxCell>
        <mxCell id="awgkv_ajtb9gfM6F4B6d-91" value="Choice 2 (ex. use item)" style="rounded=0;whiteSpace=wrap;html=1;" vertex="1" parent="1">
          <mxGeometry x="40" y="1350" width="290" height="30" as="geometry" />
        </mxCell>
        <mxCell id="awgkv_ajtb9gfM6F4B6d-96" style="edgeStyle=orthogonalEdgeStyle;rounded=0;orthogonalLoop=1;jettySize=auto;html=1;exitX=1;exitY=0.5;exitDx=0;exitDy=0;" edge="1" parent="1" source="awgkv_ajtb9gfM6F4B6d-92">
          <mxGeometry relative="1" as="geometry">
            <mxPoint x="330.27272727272725" y="1280" as="targetPoint" />
            <Array as="points">
              <mxPoint x="410" y="1395" />
              <mxPoint x="410" y="1280" />
            </Array>
          </mxGeometry>
        </mxCell>
        <mxCell id="awgkv_ajtb9gfM6F4B6d-92" value="Choice 3 (ex. envmt. action - search/open)" style="rounded=0;whiteSpace=wrap;html=1;" vertex="1" parent="1">
          <mxGeometry x="40" y="1380" width="290" height="30" as="geometry" />
        </mxCell>
        <mxCell id="awgkv_ajtb9gfM6F4B6d-93" style="edgeStyle=orthogonalEdgeStyle;rounded=0;orthogonalLoop=1;jettySize=auto;html=1;exitX=1;exitY=0.5;exitDx=0;exitDy=0;entryX=1.001;entryY=0.394;entryDx=0;entryDy=0;entryPerimeter=0;" edge="1" parent="1" source="awgkv_ajtb9gfM6F4B6d-90" target="awgkv_ajtb9gfM6F4B6d-89">
          <mxGeometry relative="1" as="geometry">
            <Array as="points">
              <mxPoint x="390" y="1335" />
              <mxPoint x="390" y="1284" />
            </Array>
          </mxGeometry>
        </mxCell>
        <mxCell id="awgkv_ajtb9gfM6F4B6d-95" value="&lt;h1 style=&quot;margin-top: 0px;&quot;&gt;Outcomes can&lt;/h1&gt;&lt;p&gt;Change a certain place: a new person appears, basic description change&lt;/p&gt;&lt;p&gt;Change a certain person: new dialog option&lt;/p&gt;&lt;p&gt;Change your character. change stats; give/remove item; add/complete task; add rumor/info&lt;/p&gt;" style="text;html=1;whiteSpace=wrap;overflow=hidden;rounded=0;" vertex="1" parent="1">
          <mxGeometry x="365" y="1070" width="360" height="170" as="geometry" />
        </mxCell>
        <mxCell id="awgkv_ajtb9gfM6F4B6d-99" value="Dialog Screen" style="text;html=1;align=center;verticalAlign=middle;whiteSpace=wrap;rounded=0;" vertex="1" parent="1">
          <mxGeometry x="10" y="1190" width="100" height="30" as="geometry" />
        </mxCell>
        <mxCell id="awgkv_ajtb9gfM6F4B6d-101" value="Change&lt;div&gt;screen&lt;/div&gt;&lt;div&gt;and&lt;/div&gt;&lt;div&gt;options&lt;/div&gt;" style="text;html=1;align=center;verticalAlign=middle;whiteSpace=wrap;rounded=0;" vertex="1" parent="1">
          <mxGeometry x="420" y="1300" width="60" height="30" as="geometry" />
        </mxCell>
        <mxCell id="awgkv_ajtb9gfM6F4B6d-102" value="&lt;h1 style=&quot;margin-top: 0px;&quot;&gt;A person has&lt;/h1&gt;&lt;p&gt;A (few) dialog tree; itens/info/tasks it can give; &quot;memory&quot; of certain choices made/itens given/tasks completed;&lt;/p&gt;" style="text;html=1;whiteSpace=wrap;overflow=hidden;rounded=0;" vertex="1" parent="1">
          <mxGeometry x="515" y="1350" width="275" height="120" as="geometry" />
        </mxCell>
      </root>
    </mxGraphModel>
  </diagram>
</mxfile>
